{
  "accessors": [
    {
      "bufferView": 2,
      "componentType": 5126,
      "count": 5110,
      "max": [
        5.667926788330078,
        1.5473188161849976,
        6.142341613769531
      ],
      "min": [
        -5.667926788330078,
        -0.862346351146698,
        -2.670377731323242
      ],
      "type": "VEC3"
    },
    {
      "bufferView": 2,
      "byteOffset": 61320,
      "componentType": 5126,
      "count": 5110,
      "max": [
        1.0,
        1.0,
        1.0
      ],
      "min": [
        -1.0,
        -1.0,
        -1.0
      ],
      "type": "VEC3"
    },
    {
      "bufferView": 0,
      "componentType": 5125,
      "count": 9672,
      "type": "SCALAR"
    },
    {
      "bufferView": 2,
      "byteOffset": 122640,
      "componentType": 5126,
      "count": 136,
      "max": [
        3.9390790462493896,
        1.4983147382736206,
        1.1834927797317505
      ],
      "min": [
        -3.9390790462493896,
        -0.19358861446380615,
        -1.9436304569244385
      ],
      "type": "VEC3"
    },
    {
      "bufferView": 2,
      "byteOffset": 124272,
      "componentType": 5126,
      "count": 136,
      "max": [
        1.0,
        1.0,
        1.0
      ],
      "min": [
        -1.0,
        0.0,
        -0.0
      ],
      "type": "VEC3"
    },
    {
      "bufferView": 1,
      "componentType": 5126,
      "count": 136,
      "max": [
        0.7438745498657227,
        0.7500000596046448
      ],
      "min": [
        0.4256141483783722,
        0.4999999403953552
      ],
      "type": "VEC2"
    },
    {
      "bufferView": 0,
      "byteOffset": 38688,
      "componentType": 5125,
      "count": 240,
      "type": "SCALAR"
    },
    {
      "bufferView": 2,
      "byteOffset": 125904,
      "componentType": 5126,
      "count": 575,
      "max": [
        5.22053861618042,
        0.9758355617523193,
        5.755374908447266
      ],
      "min": [
        -5.22053861618042,
        -0.2753725051879883,
        -0.8895069360733032
      ],
      "type": "VEC3"
    },
    {
      "bufferView": 2,
      "byteOffset": 132804,
      "componentType": 5126,
      "count": 575,
      "max": [
        1.0,
        1.0,
        1.0
      ],
      "min": [
        -1.0,
        -1.0,
        -1.0
      ],
      "type": "VEC3"
    },
    {
      "bufferView": 1,
      "byteOffset": 1088,
      "componentType": 5126,
      "count": 575,
      "max": [
        0.75,
        0.875
      ],
      "min": [
        0.25,
        0.4999999701976776
      ],
      "type": "VEC2"
    },
    {
      "bufferView": 0,
      "byteOffset": 39648,
      "componentType": 5125,
      "count": 1440,
      "type": "SCALAR"
    },
    {
      "bufferView": 2,
      "byteOffset": 139704,
      "componentType": 5126,
      "count": 114,
      "max": [
        2.097944498062134,
        1.4949288368225098,
        2.45184063911438
      ],
      "min": [
        -2.097944498062134,
        -0.8097380995750427,
        -2.670377731323242
      ],
      "type": "VEC3"
    },
    {
      "bufferView": 2,
      "byteOffset": 141072,
      "componentType": 5126,
      "count": 114,
      "max": [
        0.6996614336967468,
        1.0,
        0.9654276967048645
      ],
      "min": [
        -0.6996614336967468,
        0.0,
        -1.0
      ],
      "type": "VEC3"
    },
    {
      "bufferView": 1,
      "byteOffset": 5688,
      "componentType": 5126,
      "count": 114,
      "max": [
        0.6250001192092896,
        0.75
      ],
      "min": [
        0.3749999701976776,
        0.3876534700393677
      ],
      "type": "VEC2"
    },
    {
      "bufferView": 0,
      "byteOffset": 45408,
      "componentType": 5125,
      "count": 246,
      "type": "SCALAR"
    }
  ],
  "asset": {
    "extras": {
      "author": "mehmetserdartekin (https://sketchfab.com/mehmetserdartekin)",
      "license": "CC-BY-4.0 (http://creativecommons.org/licenses/by/4.0/)",
      "source": "https://sketchfab.com/3d-models/space-ship-19c7b500516f4157ba16305cf073cbe6",
      "title": "Space Ship"
    },
    "generator": "Sketchfab-12.67.0",
    "version": "2.0"
  },
  "bufferViews": [
    {
      "buffer": 0,
      "byteLength": 46392,
      "name": "floatBufferViews",
      "target": 34963
    },
    {
      "buffer": 0,
      "byteLength": 6600,
      "byteOffset": 46392,
      "byteStride": 8,
      "name": "floatBufferViews",
      "target": 34962
    },
    {
      "buffer": 0,
      "byteLength": 142440,
      "byteOffset": 52992,
      "byteStride": 12,
      "name": "floatBufferViews",
      "target": 34962
    }
  ],
  "buffers": [
    {
      "byteLength": 195432,
      "uri": "scene.bin"
    }
  ],
  "materials": [
    {
      "doubleSided": true,
      "name": "main",
      "pbrMetallicRoughness": {
        "baseColorFactor": [
          0.0671837,
          0.0712765,
          0.0985001,
          1.0
        ],
        "metallicFactor": 0.0,
        "roughnessFactor": 0.4
      }
    },
    {
      "alphaMode": "BLEND",
      "doubleSided": true,
      "name": "galss",
      "pbrMetallicRoughness": {
        "baseColorFactor": [
          0.8373390532,
          0.9595995432,
          1.0,
          0.98
        ]
      }
    },
    {
      "doubleSided": true,
      "emissiveFactor": [
        0.0034705853382395843,
        0.03239510732236859,
        0.11574007544631994
      ],
      "name": "emmisive",
      "pbrMetallicRoughness": {
        "baseColorFactor": [
          0.1333848378,
          0.4002868507,
          0.5399202322,
          1.0
        ],
        "metallicFactor": 0.0,
        "roughnessFactor": 0.5
      }
    },
    {
      "doubleSided": true,
      "emissiveFactor": [
        0.4990765851078642,
        0.07808496966098741,
        0.01033323795075598
      ],
      "name": "engne",
      "pbrMetallicRoughness": {
        "baseColorFactor": [
          0.8,
          0.8,
          0.8,
          1.0
        ],
        "metallicFactor": 0.0,
        "roughnessFactor": 0.5
      }
    }
  ],
  "meshes": [
    {
      "name": "Object_0",
      "primitives": [
        {
          "attributes": {
            "NORMAL": 1,
            "POSITION": 0
          },
          "indices": 2,
          "material": 0,
          "mode": 4
        }
      ]
    },
    {
      "name": "Object_1",
      "primitives": [
        {
          "attributes": {
            "NORMAL": 4,
            "POSITION": 3,
            "TEXCOORD_0": 5
          },
          "indices": 6,
          "material": 1,
          "mode": 4
        }
      ]
    },
    {
      "name": "Object_2",
      "primitives": [
        {
          "attributes": {
            "NORMAL": 8,
            "POSITION": 7,
            "TEXCOORD_0": 9
          },
          "indices": 10,
          "material": 2,
          "mode": 4
        }
      ]
    },
    {
      "name": "Object_3",
      "primitives": [
        {
          "attributes": {
            "NORMAL": 12,
            "POSITION": 11,
            "TEXCOORD_0": 13
          },
          "indices": 14,
          "material": 3,
          "mode": 4
        }
      ]
    }
  ],
  "nodes": [
    {
      "children": [
        1
      ],
      "matrix": [
        1.0,
        0.0,
        0.0,
        0.0,
        0.0,
        2.220446049250313e-16,
        -1.0,
        0.0,
        0.0,
        1.0,
        2.220446049250313e-16,
        0.0,
        0.0,
        0.0,
        0.0,
        1.0
      ],
      "name": "Sketchfab_model"
    },
    {
      "children": [
        2
      ],
      "name": "root"
    },
    {
      "children": [
        3
      ],
      "matrix": [
        1.0,
        0.0,
        0.0,
        0.0,
        0.0,
        2.220446049250313e-16,
        1.0,
        0.0,
        0.0,
        -1.0,
        2.220446049250313e-16,
        0.0,
        0.0,
        0.0,
        0.0,
        1.0
      ],
      "name": "GLTF_SceneRootNode"
    },
    {
      "children": [
        4,
        5,
        6,
        7
      ],
      "name": "Cube_0"
    },
    {
      "mesh": 0,
      "name": "Object_4"
    },
    {
      "mesh": 1,
      "name": "Object_5"
    },
    {
      "mesh": 2,
      "name": "Object_6"
    },
    {
      "mesh": 3,
      "name": "Object_7"
    }
  ],
  "scene": 0,
  "scenes": [
    {
      "name": "Sketchfab_Scene",
      "nodes": [
        0
      ]
    }
  ]
}
